<svg version="1" xmlns="http://www.w3.org/2000/svg" width="2276" height="2276" viewBox="0 0 1707.000000 1707.000000"><path d="M119 853.5v853.6l265.8-.6c293.3-.7 318.3-.9 338.7-3 2.2-.3 6.5-.7 9.6-.9 17-1.5 65-7.3 73.4-9 1.1-.2 4.3-.7 7-1 2.8-.4 6.4-1 8-1.2 26.2-4.3 46.9-8.4 73.3-14.5 9.5-2.2 18.1-4.2 19-4.4 6.6-1.5 46.9-12.7 55.7-15.6 18.3-5.9 46.6-15.4 49-16.4 1.7-.7 9.3-3.6 17-6.5 7.7-2.9 15.4-5.9 17-6.6 1.7-.7 9.3-4 17-7.2 35.7-15.2 70.2-32.5 105-52.7 5.5-3.2 11.2-6.6 12.7-7.6 1.4-1.1 2.8-1.9 3.1-1.9 1.8 0 46.1-29.5 62.7-41.8 12-8.9 30.2-23.1 40.6-31.7 3.3-2.7 7.9-6.5 10.2-8.3 2.2-1.9 5.2-4.4 6.5-5.5 1.3-1.2 6.2-5.6 10.8-9.7 14.9-13.3 20.1-18.2 37.4-35.5 22.1-22.1 35.7-36.9 48-52 2.2-2.7 5.4-6.5 7.1-8.4 1.8-2 9.1-11.5 16.3-21.1 7.2-9.6 13.4-18 13.8-18.5 2.1-2.7 20.7-31 25-38 9.9-16 26.1-45.3 33-59.5 9.6-19.9 14-29.5 20.6-45.2 4-9.5 7.9-18.9 8.6-20.8.8-1.9 1.9-4.9 2.6-6.5 3.3-7.7 16-45.3 19-56 .8-2.8 2.6-9.3 4-14.5 1.5-5.2 2.8-10.2 3-11 .2-.8 1-4 1.9-7 1.3-4.6 4.7-19 6.2-26.5.2-1.1.9-4.5 1.6-7.5.6-3 1.2-5.7 1.3-6 .4-1.8 1.8-8.8 2.1-10.5 1.8-10.1 3.6-20.6 4-23.4.2-1.9.6-4.6.9-6 1-5.9 2.1-13.9 2.9-20.6.3-2.2 1-7.6 1.5-12 .6-4.4 1.3-11.2 1.7-15 .3-3.9.7-8.4.9-10 .8-6.8 1.8-59 1.8-87.7-.1-28.3-.8-57-1.8-69.3-1.1-14.3-1.6-20.4-2-24-.2-2.2-.9-8.7-1.5-14.5-.6-5.8-1.3-11.9-1.5-13.5-.3-1.7-.7-4.8-.9-7-.8-7.3-1.8-15-2.2-17.5-.2-1.4-.7-4.5-1-7-.3-2.5-.7-5.2-.9-6-.2-.8-.7-3.8-1-6.5-.4-2.8-.8-5.7-1-6.5-.3-.8-.7-3.3-1.1-5.5-1.1-7.4-8.2-42.9-10.4-52-11.1-45.6-28.9-100.2-44.5-136-12-27.7-28.1-60.3-37.9-76.9-2.5-4.3-4.6-7.9-4.6-8.1 0-.8-14.4-23.7-23.6-37.7-14.3-21.6-37.7-52.5-52.5-69.3-1.5-1.7-6.2-7-10.5-12-16.3-18.6-45.9-47.2-72.4-69.9-18.9-16.2-52.4-40.5-80.6-58.4-24.5-15.6-70.5-40.2-95.9-51.4-4.9-2.2-10.9-4.8-13.1-5.9-16.8-7.6-47.8-19.4-74.9-28.5-18.9-6.3-55.9-17.4-62.8-18.8-1.2-.3-3.3-.8-4.7-1.1-1.4-.4-4.1-1.1-6-1.5-1.9-.5-7.3-1.8-12-3s-9.4-2.3-10.5-2.4c-1.1-.2-3.8-.9-6-1.4-2.2-.6-5.1-1.3-6.5-1.6-1.4-.2-9.5-1.9-18-3.6-8.5-1.7-17.1-3.3-19-3.6-1.9-.2-4.6-.7-6-1-4.1-1-5.2-1.1-13.5-2.4-4.4-.7-8.9-1.4-10-1.6-1-.2-3.7-.6-6-.9-4.6-.6-11.3-1.6-13.5-2-.8-.2-4.2-.6-7.5-1s-6.9-.8-8-1c-1.1-.1-4.5-.5-7.5-.9-6.7-.9-10.6-1.3-19-2.2-3.6-.3-7.2-.7-8-.9-.9-.2-5.8-.6-11-1-5.2-.3-11.5-.8-14-1C738.5 2 679.1 1.3 360.8.5L119-.2v853.7zm532-425c1.9.1 8 .6 13.5.9 5.5.4 11.6.9 13.5 1.1 1.9.2 6.9.6 11.1 1 4.2.3 8.5.7 9.5.9 1.1.2 5.3.7 9.4 1.1 4.1.3 8.2.8 9 1 .8.2 4 .7 7 1 6.6.7 10.7 1.3 18 2.5 3 .6 7.2 1.2 9.4 1.5 2.1.2 4.6.7 5.5.9.9.3 3.6.8 6.1 1.1 3.5.5 24 4.6 35.1 7 23.1 5 71.6 20 87.4 27 1.7.7 7.5 3.2 13 5.6 17.7 7.5 44.4 21.6 63.1 33.4 20 12.6 44.7 34.8 59.9 54 2.2 2.7 4.2 5.2 4.5 5.5 2.4 2.4 21 29.3 21 30.4 0 .2 2.2 4.1 4.8 8.7 10.6 18.6 21.5 43.5 28.5 65.5 2.8 8.8 8.6 29.4 9.3 33.4.3 1.4 1.2 5.4 2 9 .9 3.6 1.7 7.4 1.9 8.5.1 1.1 1.5 8.7 2.9 17 1.4 8.2 2.9 18.4 3.3 22.5 1.7 16.4.8 126.1-1.1 136.6-.2 1-.7 4.6-1.1 7.9-.4 3.2-.9 6.8-1.1 8-.2 1.1-.9 4.9-1.4 8.5-.5 3.6-1.2 7.6-1.5 9-.3 1.4-.8 4.1-1.1 6-1.2 7-6.7 29.8-9.6 40-12.1 42.8-31 83.1-54.1 115.5-31.6 44.3-76.4 80.7-131.7 107.1-19.8 9.5-28 12.7-50.6 20.3-15.7 5.3-22.9 7.4-37.4 11.3-1.9.5-3.9 1-4.5 1.2-.5.2-2.3.6-4 1-1.6.4-4.8 1.2-7 1.7s-4.9 1.1-6 1.3c-1.1.2-7.6 1.6-14.5 3s-15.4 3-19 3.7c-3.6.6-7.4 1.3-8.5 1.5-4.5.8-37.5 5.3-43.5 5.9-3.6.4-7.8.8-9.5 1-6.9.8-25.4 2-43.5 3-20 1-28.3 1.5-29 2-.3.2-1.2 0-2-.5-1.3-.8-1.5-54.6-1.5-419.1l-.1-418.1 15.6.7c8.5.3 17.1.8 19 1z"/></svg>